<svg xmlns="http://www.w3.org/2000/svg" xmlns:xlink="http://www.w3.org/1999/xlink" id="Layer_2_00000050646341795908279790000016125735194773014960_" x="0px" y="0px" viewBox="0 0 455.8 317" style="enable-background:new 0 0 455.8 317;" xml:space="preserve"><style type="text/css">	.st0{stroke:#000000;stroke-width:0.2;stroke-miterlimit:10;}	.st1{stroke:#000000;stroke-width:0.65;stroke-miterlimit:10;}</style><g id="Layer_1-2">	<g>		<g>			<path class="st0" d="M141.2,104.1l4.1-6.2l-3.7-5.7h2.8l2.4,3.8l2.3-3.8h2.8l-3.7,5.8l4.1,6.1h-2.9l-2.6-4.1l-2.7,4.1    L141.2,104.1L141.2,104.1z"></path>		</g>		<g>			<path class="st0" d="M141.2,104.1l4.1-6.2l-3.7-5.7h2.8l2.4,3.8l2.3-3.8h2.8l-3.7,5.8l4.1,6.1h-2.9l-2.6-4.1l-2.7,4.1    L141.2,104.1L141.2,104.1z"></path>		</g>		<g>			<path class="st0" d="M161.2,103.9l4.2-6.2l-3.6-5.8h2.8l2.3,3.9l2.4-3.8h2.8l-3.8,5.7l4,6.2h-2.9l-2.6-4.2l-2.7,4.1    C164.1,103.8,161.2,103.9,161.2,103.9z"></path>		</g>		<g>			<path class="st0" d="M161.2,103.9l4.2-6.2l-3.6-5.8h2.8l2.3,3.9l2.4-3.8h2.8l-3.8,5.7l4,6.2h-2.9l-2.6-4.2l-2.7,4.1    C164.1,103.8,161.2,103.9,161.2,103.9z"></path>		</g>		<g>			<path class="st0" d="M181.4,103.9l4.2-6.2l-3.6-5.8h2.8l2.3,3.9l2.4-3.8h2.8l-3.8,5.7l4,6.2h-2.9l-2.6-4.2l-2.7,4.1    C184.3,103.8,181.4,103.9,181.4,103.9z"></path>		</g>		<g>			<path class="st0" d="M181.4,103.9l4.2-6.2l-3.6-5.8h2.8l2.3,3.9l2.4-3.8h2.8l-3.8,5.7l4,6.2h-2.9l-2.6-4.2l-2.7,4.1    C184.3,103.8,181.4,103.9,181.4,103.9z"></path>		</g>		<g>			<path class="st0" d="M201.6,104l4.2-6.2l-3.6-5.8h2.8l2.3,3.9l2.4-3.8h2.8l-3.8,5.7l4,6.2h-2.9l-2.6-4.2l-2.7,4.1    C204.5,103.9,201.6,104,201.6,104z"></path>		</g>		<g>			<path class="st0" d="M201.6,104l4.2-6.2l-3.6-5.8h2.8l2.3,3.9l2.4-3.8h2.8l-3.8,5.7l4,6.2h-2.9l-2.6-4.2l-2.7,4.1    C204.5,103.9,201.6,104,201.6,104z"></path>		</g>		<g>			<path class="st0" d="M221.6,103.9l4.2-6.2l-3.6-5.8h2.8l2.3,3.9l2.4-3.8h2.8l-3.8,5.7l4,6.2h-2.9l-2.6-4.2l-2.7,4.1    C224.5,103.8,221.6,103.9,221.6,103.9z"></path>		</g>		<g>			<path class="st0" d="M221.6,103.9l4.2-6.2l-3.6-5.8h2.8l2.3,3.9l2.4-3.8h2.8l-3.8,5.7l4,6.2h-2.9l-2.6-4.2l-2.7,4.1    C224.5,103.8,221.6,103.9,221.6,103.9z"></path>		</g>		<g>			<path class="st0" d="M241.8,103.9l4.2-6.2l-3.6-5.8h2.8l2.3,3.9l2.4-3.8h2.8l-3.8,5.7l4,6.2H250l-2.6-4.2l-2.7,4.1    C244.7,103.8,241.8,103.9,241.8,103.9z"></path>		</g>		<g>			<path class="st0" d="M241.8,103.9l4.2-6.2l-3.6-5.8h2.8l2.3,3.9l2.4-3.8h2.8l-3.8,5.7l4,6.2H250l-2.6-4.2l-2.7,4.1    C244.7,103.8,241.8,103.9,241.8,103.9z"></path>		</g>		<g>			<path class="st0" d="M261.9,103.9l4.2-6.2l-3.6-5.8h2.8l2.3,3.9L270,92h2.8l-3.8,5.7l4,6.2h-2.9l-2.6-4.2l-2.7,4.1L261.9,103.9    L261.9,103.9z"></path>		</g>		<g>			<path class="st0" d="M261.9,103.9l4.2-6.2l-3.6-5.8h2.8l2.3,3.9L270,92h2.8l-3.8,5.7l4,6.2h-2.9l-2.6-4.2l-2.7,4.1L261.9,103.9    L261.9,103.9z"></path>		</g>		<g>			<path class="st0" d="M282.2,103.9l4.2-6.2l-3.6-5.8h2.8l2.3,3.9l2.4-3.8h2.8l-3.8,5.7l4,6.2h-2.9l-2.6-4.2l-2.7,4.1L282.2,103.9    L282.2,103.9z"></path>		</g>		<g>			<path class="st0" d="M282.2,103.9l4.2-6.2l-3.6-5.8h2.8l2.3,3.9l2.4-3.8h2.8l-3.8,5.7l4,6.2h-2.9l-2.6-4.2l-2.7,4.1L282.2,103.9    L282.2,103.9z"></path>		</g>		<g>			<path class="st0" d="M302.2,103.9l4.2-6.2l-3.6-5.8h2.8l2.3,3.9l2.4-3.8h2.8l-3.8,5.7l4,6.2h-2.9l-2.6-4.2l-2.7,4.1L302.2,103.9    L302.2,103.9z"></path>		</g>		<g>			<path class="st0" d="M302.2,103.9l4.2-6.2l-3.6-5.8h2.8l2.3,3.9l2.4-3.8h2.8l-3.8,5.7l4,6.2h-2.9l-2.6-4.2l-2.7,4.1L302.2,103.9    L302.2,103.9z"></path>		</g>		<g>			<path class="st0" d="M322.4,103.9l4.2-6.2l-3.6-5.8h2.8l2.3,3.9l2.4-3.8h2.8l-3.8,5.7l4,6.2h-2.9l-2.6-4.2l-2.7,4.1L322.4,103.9    L322.4,103.9z"></path>		</g>		<g>			<path class="st0" d="M322.4,103.9l4.2-6.2l-3.6-5.8h2.8l2.3,3.9l2.4-3.8h2.8l-3.8,5.7l4,6.2h-2.9l-2.6-4.2l-2.7,4.1L322.4,103.9    L322.4,103.9z"></path>		</g>		<g>			<path class="st0" d="M342.5,103.9l4.2-6.2l-3.6-5.8h2.8l2.3,3.9l2.4-3.8h2.8l-3.8,5.7l4,6.2h-2.9l-2.6-4.2l-2.7,4.1L342.5,103.9    L342.5,103.9z"></path>		</g>		<g>			<path class="st0" d="M342.5,103.9l4.2-6.2l-3.6-5.8h2.8l2.3,3.9l2.4-3.8h2.8l-3.8,5.7l4,6.2h-2.9l-2.6-4.2l-2.7,4.1L342.5,103.9    L342.5,103.9z"></path>		</g>		<g>			<path class="st0" d="M362.7,103.9l4.2-6.2l-3.6-5.8h2.8l2.3,3.9l2.4-3.8h2.8l-3.8,5.7l4,6.2h-2.9l-2.6-4.2l-2.7,4.1L362.7,103.9    L362.7,103.9z"></path>		</g>		<g>			<path class="st0" d="M362.7,103.9l4.2-6.2l-3.6-5.8h2.8l2.3,3.9l2.4-3.8h2.8l-3.8,5.7l4,6.2h-2.9l-2.6-4.2l-2.7,4.1L362.7,103.9    L362.7,103.9z"></path>		</g>		<g>			<path class="st0" d="M383,103.9l4.2-6.2l-3.6-5.8h2.8l2.3,3.9l2.4-3.8h2.8l-3.8,5.7l4,6.2h-2.9l-2.6-4.2l-2.7,4.1L383,103.9    L383,103.9z"></path>		</g>		<g>			<path class="st0" d="M383,103.9l4.2-6.2l-3.6-5.8h2.8l2.3,3.9l2.4-3.8h2.8l-3.8,5.7l4,6.2h-2.9l-2.6-4.2l-2.7,4.1L383,103.9    L383,103.9z"></path>		</g>		<g>			<path class="st0" d="M403.1,103.9l4.2-6.2l-3.6-5.8h2.8l2.3,3.9l2.4-3.8h2.8l-3.8,5.7l4,6.2h-2.9l-2.6-4.2l-2.7,4.1L403.1,103.9    L403.1,103.9z"></path>		</g>		<g>			<path class="st0" d="M403.1,103.9l4.2-6.2l-3.6-5.8h2.8l2.3,3.9l2.4-3.8h2.8l-3.8,5.7l4,6.2h-2.9l-2.6-4.2l-2.7,4.1L403.1,103.9    L403.1,103.9z"></path>		</g>		<g>			<path class="st0" d="M423.2,103.9l4.2-6.2l-3.6-5.8h2.8l2.3,3.9l2.4-3.8h2.8l-3.8,5.7l4,6.2h-2.9l-2.6-4.2l-2.7,4.1L423.2,103.9    L423.2,103.9z"></path>		</g>		<g>			<path class="st0" d="M423.2,103.9l4.2-6.2l-3.6-5.8h2.8l2.3,3.9l2.4-3.8h2.8l-3.8,5.7l4,6.2h-2.9l-2.6-4.2l-2.7,4.1L423.2,103.9    L423.2,103.9z"></path>		</g>		<g>			<path class="st0" d="M443.4,104l4.2-6.2L444,92h2.8l2.3,3.9l2.4-3.8h2.8l-3.8,5.7l4,6.2h-2.9l-2.6-4.2l-2.7,4.1L443.4,104    L443.4,104z"></path>		</g>		<g>			<path class="st0" d="M443.4,104l4.2-6.2L444,92h2.8l2.3,3.9l2.4-3.8h2.8l-3.8,5.7l4,6.2h-2.9l-2.6-4.2l-2.7,4.1L443.4,104    L443.4,104z"></path>		</g>		<g>			<path class="st0" d="M0.2,103.8l4.2-6.2l-3.6-5.8h2.8l2.3,3.9l2.4-3.8h2.8l-3.8,5.7l4,6.2H8.4l-2.6-4.2l-2.7,4.1    C3.1,103.7,0.2,103.8,0.2,103.8z"></path>		</g>		<g>			<path class="st0" d="M20.2,103.9l4.2-6.2l-3.6-5.8h2.8l2.3,3.9l2.4-3.8h2.8l-3.8,5.7l4,6.2h-2.9l-2.6-4.2l-2.7,4.1    C23.1,103.8,20.2,103.9,20.2,103.9z"></path>		</g>		<g>			<path class="st0" d="M20.2,103.9l4.2-6.2l-3.6-5.8h2.8l2.3,3.9l2.4-3.8h2.8l-3.8,5.7l4,6.2h-2.9l-2.6-4.2l-2.7,4.1    C23.1,103.8,20.2,103.9,20.2,103.9z"></path>		</g>		<g>			<path class="st0" d="M40.4,103.9l4.2-6.2L41,91.9h2.8l2.3,3.9l2.4-3.8h2.8l-3.8,5.7l4,6.2h-2.9L46,99.7l-2.7,4.1    C43.3,103.8,40.4,103.9,40.4,103.9z"></path>		</g>		<g>			<path class="st0" d="M40.4,103.9l4.2-6.2L41,91.9h2.8l2.3,3.9l2.4-3.8h2.8l-3.8,5.7l4,6.2h-2.9L46,99.7l-2.7,4.1    C43.3,103.8,40.4,103.9,40.4,103.9z"></path>		</g>		<g>			<path class="st0" d="M60.5,103.9l4.2-6.2l-3.6-5.8h2.8l2.3,3.9l2.4-3.8h2.8l-3.8,5.7l4,6.2h-2.9l-2.6-4.2l-2.7,4.1    C63.4,103.8,60.5,103.9,60.5,103.9z"></path>		</g>		<g>			<path class="st0" d="M60.5,103.9l4.2-6.2l-3.6-5.8h2.8l2.3,3.9l2.4-3.8h2.8l-3.8,5.7l4,6.2h-2.9l-2.6-4.2l-2.7,4.1    C63.4,103.8,60.5,103.9,60.5,103.9z"></path>		</g>		<g>			<path class="st0" d="M80.8,121.4l4.2-6.2l-3.6-5.8h2.8l2.3,3.9l2.4-3.8h2.8l-3.8,5.7l4,6.2H89l-2.6-4.2l-2.7,4.1    C83.7,121.3,80.8,121.4,80.8,121.4z"></path>		</g>		<g>			<path class="st0" d="M80.8,121.4l4.2-6.2l-3.6-5.8h2.8l2.3,3.9l2.4-3.8h2.8l-3.8,5.7l4,6.2H89l-2.6-4.2l-2.7,4.1    C83.7,121.3,80.8,121.4,80.8,121.4z"></path>		</g>		<g>			<path class="st0" d="M201.8,121.4l4.2-6.2l-3.6-5.8h2.8l2.3,3.9l2.4-3.8h2.8l-3.8,5.7l4,6.2H210l-2.6-4.2l-2.7,4.1    C204.7,121.3,201.8,121.4,201.8,121.4z"></path>		</g>		<g>			<path class="st0" d="M201.8,121.4l4.2-6.2l-3.6-5.8h2.8l2.3,3.9l2.4-3.8h2.8l-3.8,5.7l4,6.2H210l-2.6-4.2l-2.7,4.1    C204.7,121.3,201.8,121.4,201.8,121.4z"></path>		</g>		<g>			<path class="st0" d="M333.6,121.3l4.2-6.2l-3.6-5.8h2.8l2.3,3.9l2.4-3.8h2.8l-3.8,5.7l4,6.2h-2.9l-2.6-4.2l-2.7,4.1L333.6,121.3    L333.6,121.3z"></path>		</g>		<g>			<path class="st0" d="M333.6,121.3l4.2-6.2l-3.6-5.8h2.8l2.3,3.9l2.4-3.8h2.8l-3.8,5.7l4,6.2h-2.9l-2.6-4.2l-2.7,4.1L333.6,121.3    L333.6,121.3z"></path>		</g>		<g>			<path class="st0" d="M310.5,127.9l4.2-6.2l-3.6-5.8h2.8l2.3,3.9l2.4-3.8h2.8l-3.8,5.7l4,6.2h-2.9l-2.6-4.2l-2.7,4.1L310.5,127.9    L310.5,127.9z"></path>		</g>		<g>			<path class="st0" d="M310.5,127.9l4.2-6.2l-3.6-5.8h2.8l2.3,3.9l2.4-3.8h2.8l-3.8,5.7l4,6.2h-2.9l-2.6-4.2l-2.7,4.1L310.5,127.9    L310.5,127.9z"></path>		</g>		<g>			<path class="st0" d="M290.3,133.1l4.2-6.2l-3.6-5.8h2.8l2.3,3.9l2.4-3.8h2.8l-3.8,5.7l4,6.2h-2.9l-2.6-4.2l-2.7,4.1L290.3,133.1    L290.3,133.1z"></path>		</g>		<g>			<path class="st0" d="M290.3,133.1l4.2-6.2l-3.6-5.8h2.8l2.3,3.9l2.4-3.8h2.8l-3.8,5.7l4,6.2h-2.9l-2.6-4.2l-2.7,4.1L290.3,133.1    L290.3,133.1z"></path>		</g>		<g>			<path class="st0" d="M270.3,141.9l4.2-6.2l-3.6-5.8h2.8l2.3,3.9l2.4-3.8h2.8l-3.8,5.7l4,6.2h-2.9l-2.6-4.2l-2.7,4.1L270.3,141.9    L270.3,141.9z"></path>		</g>		<g>			<path class="st0" d="M270.3,141.9l4.2-6.2l-3.6-5.8h2.8l2.3,3.9l2.4-3.8h2.8l-3.8,5.7l4,6.2h-2.9l-2.6-4.2l-2.7,4.1L270.3,141.9    L270.3,141.9z"></path>		</g>		<g>			<path class="st0" d="M266.9,159.9l4.2-6.2l-3.6-5.8h2.8l2.3,3.9l2.4-3.8h2.8l-3.8,5.7l4,6.2h-2.9l-2.6-4.2l-2.7,4.1L266.9,159.9    L266.9,159.9z"></path>		</g>		<g>			<path class="st0" d="M266.9,159.9l4.2-6.2l-3.6-5.8h2.8l2.3,3.9l2.4-3.8h2.8l-3.8,5.7l4,6.2h-2.9l-2.6-4.2l-2.7,4.1L266.9,159.9    L266.9,159.9z"></path>		</g>		<g>			<path class="st0" d="M282.4,171l4.2-6.2L283,159h2.8l2.3,3.9l2.4-3.8h2.8l-3.8,5.7l4,6.2h-2.9l-2.6-4.2l-2.7,4.1L282.4,171    L282.4,171z"></path>		</g>		<g>			<path class="st0" d="M282.4,171l4.2-6.2L283,159h2.8l2.3,3.9l2.4-3.8h2.8l-3.8,5.7l4,6.2h-2.9l-2.6-4.2l-2.7,4.1L282.4,171    L282.4,171z"></path>		</g>		<g>			<path class="st0" d="M302.9,171.6l4.2-6.2l-3.6-5.8h2.8l2.3,3.9l2.4-3.8h2.8l-3.8,5.7l4,6.2h-2.9l-2.6-4.2l-2.7,4.1L302.9,171.6    L302.9,171.6z"></path>		</g>		<g>			<path class="st0" d="M302.9,171.6l4.2-6.2l-3.6-5.8h2.8l2.3,3.9l2.4-3.8h2.8l-3.8,5.7l4,6.2h-2.9l-2.6-4.2l-2.7,4.1L302.9,171.6    L302.9,171.6z"></path>		</g>		<g>			<path class="st0" d="M322,172.3l4.2-6.2l-3.6-5.8h2.8l2.3,3.9l2.4-3.8h2.8l-3.8,5.7l4,6.2h-2.9l-2.6-4.2l-2.7,4.1L322,172.3    L322,172.3z"></path>		</g>		<g>			<path class="st0" d="M322,172.3l4.2-6.2l-3.6-5.8h2.8l2.3,3.9l2.4-3.8h2.8l-3.8,5.7l4,6.2h-2.9l-2.6-4.2l-2.7,4.1L322,172.3    L322,172.3z"></path>		</g>		<g>			<path class="st0" d="M342.5,177.5l4.2-6.2l-3.6-5.8h2.8l2.3,3.9l2.4-3.8h2.8l-3.8,5.7l4,6.2h-2.9l-2.6-4.2l-2.7,4.1L342.5,177.5    L342.5,177.5z"></path>		</g>		<g>			<path class="st0" d="M342.5,177.5l4.2-6.2l-3.6-5.8h2.8l2.3,3.9l2.4-3.8h2.8l-3.8,5.7l4,6.2h-2.9l-2.6-4.2l-2.7,4.1L342.5,177.5    L342.5,177.5z"></path>		</g>		<g>			<path class="st0" d="M350.1,198.8l4.2-6.2l-3.6-5.8h2.8l2.3,3.9l2.4-3.8h2.8l-3.8,5.7l4,6.2h-2.9l-2.6-4.2l-2.7,4.1L350.1,198.8    L350.1,198.8z"></path>		</g>		<g>			<path class="st0" d="M350.1,198.8l4.2-6.2l-3.6-5.8h2.8l2.3,3.9l2.4-3.8h2.8l-3.8,5.7l4,6.2h-2.9l-2.6-4.2l-2.7,4.1L350.1,198.8    L350.1,198.8z"></path>		</g>		<g>			<path class="st0" d="M341.8,220.3l4.2-6.2l-3.6-5.8h2.8l2.3,3.9l2.4-3.8h2.8l-3.8,5.7l4,6.2H350l-2.6-4.2l-2.7,4.1L341.8,220.3    L341.8,220.3z"></path>		</g>		<g>			<path class="st0" d="M341.8,220.3l4.2-6.2l-3.6-5.8h2.8l2.3,3.9l2.4-3.8h2.8l-3.8,5.7l4,6.2H350l-2.6-4.2l-2.7,4.1L341.8,220.3    L341.8,220.3z"></path>		</g>		<g>			<path class="st0" d="M323.5,233.2l4.2-6.2l-3.6-5.8h2.8l2.3,3.9l2.4-3.8h2.8l-3.8,5.7l4,6.2h-2.9l-2.6-4.2l-2.7,4.1L323.5,233.2    L323.5,233.2z"></path>		</g>		<g>			<path class="st0" d="M323.5,233.2l4.2-6.2l-3.6-5.8h2.8l2.3,3.9l2.4-3.8h2.8l-3.8,5.7l4,6.2h-2.9l-2.6-4.2l-2.7,4.1L323.5,233.2    L323.5,233.2z"></path>		</g>		<g>			<path class="st0" d="M300.9,232.5l4.2-6.2l-3.6-5.8h2.8l2.3,3.9l2.4-3.8h2.8l-3.8,5.7l4,6.2h-2.9l-2.6-4.2l-2.7,4.1L300.9,232.5    L300.9,232.5z"></path>		</g>		<g>			<path class="st0" d="M300.9,232.5l4.2-6.2l-3.6-5.8h2.8l2.3,3.9l2.4-3.8h2.8l-3.8,5.7l4,6.2h-2.9l-2.6-4.2l-2.7,4.1L300.9,232.5    L300.9,232.5z"></path>		</g>		<g>			<path class="st0" d="M281.2,220.7l4.2-6.2l-3.6-5.8h2.8l2.3,3.9l2.4-3.8h2.8l-3.8,5.7l4,6.2h-2.9l-2.6-4.2l-2.7,4.1L281.2,220.7    L281.2,220.7z"></path>		</g>		<g>			<path class="st0" d="M281.2,220.7l4.2-6.2l-3.6-5.8h2.8l2.3,3.9l2.4-3.8h2.8l-3.8,5.7l4,6.2h-2.9l-2.6-4.2l-2.7,4.1L281.2,220.7    L281.2,220.7z"></path>		</g>		<g>			<path class="st0" d="M264.8,206l4.2-6.2l-3.6-5.8h2.8l2.3,3.9l2.4-3.8h2.8l-3.8,5.7l4,6.2H273l-2.6-4.2l-2.7,4.1L264.8,206    L264.8,206z"></path>		</g>		<g>			<path class="st0" d="M264.8,206l4.2-6.2l-3.6-5.8h2.8l2.3,3.9l2.4-3.8h2.8l-3.8,5.7l4,6.2H273l-2.6-4.2l-2.7,4.1L264.8,206    L264.8,206z"></path>		</g>		<g>			<path class="st0" d="M253.2,191.5l4.2-6.2l-3.6-5.8h2.8l2.3,3.9l2.4-3.8h2.8l-3.8,5.7l4,6.2h-2.9l-2.5-4.1l-2.7,4.1L253.2,191.5    L253.2,191.5z"></path>		</g>		<g>			<path class="st0" d="M253.2,191.5l4.2-6.2l-3.6-5.8h2.8l2.3,3.9l2.4-3.8h2.8l-3.8,5.7l4,6.2h-2.9l-2.5-4.1l-2.7,4.1L253.2,191.5    L253.2,191.5z"></path>		</g>		<g>			<path class="st0" d="M403.4,121.3l4.2-6.2l-3.6-5.8h2.8l2.3,3.9l2.4-3.8h2.8l-3.8,5.7l4,6.2h-2.9l-2.6-4.2l-2.7,4.1L403.4,121.3    L403.4,121.3z"></path>		</g>		<g>			<path class="st0" d="M403.4,121.3l4.2-6.2l-3.6-5.8h2.8l2.3,3.9l2.4-3.8h2.8l-3.8,5.7l4,6.2h-2.9l-2.6-4.2l-2.7,4.1L403.4,121.3    L403.4,121.3z"></path>		</g>		<g>			<path class="st0" d="M80.6,142.4l4.2-6.2l-3.6-5.8H84l2.3,3.9l2.4-3.8h2.8l-3.8,5.7l4,6.2h-2.9l-2.6-4.2l-2.7,4.1    C83.5,142.3,80.6,142.4,80.6,142.4z"></path>		</g>		<g>			<path class="st0" d="M80.6,142.4l4.2-6.2l-3.6-5.8H84l2.3,3.9l2.4-3.8h2.8l-3.8,5.7l4,6.2h-2.9l-2.6-4.2l-2.7,4.1    C83.5,142.3,80.6,142.4,80.6,142.4z"></path>		</g>		<g>			<path class="st0" d="M201.8,141.9l4.2-6.2l-3.6-5.8h2.8l2.3,3.9l2.4-3.8h2.8l-3.8,5.7l4,6.2H210l-2.6-4.2l-2.7,4.1L201.8,141.9z"></path>		</g>		<g>			<path class="st0" d="M201.8,141.9l4.2-6.2l-3.6-5.8h2.8l2.3,3.9l2.4-3.8h2.8l-3.8,5.7l4,6.2H210l-2.6-4.2l-2.7,4.1L201.8,141.9z"></path>		</g>		<g>			<path class="st0" d="M403.3,142.1l4.2-6.2l-3.6-5.8h2.8l2.3,3.9l2.4-3.8h2.8l-3.8,5.7l4,6.2h-2.9l-2.6-4.2l-2.7,4.1L403.3,142.1    L403.3,142.1z"></path>		</g>		<g>			<path class="st0" d="M403.3,142.1l4.2-6.2l-3.6-5.8h2.8l2.3,3.9l2.4-3.8h2.8l-3.8,5.7l4,6.2h-2.9l-2.6-4.2l-2.7,4.1L403.3,142.1    L403.3,142.1z"></path>		</g>		<g>			<path class="st0" d="M62.4,137.4l4.2-6.2l-3.6-5.8h2.8l2.3,3.9l2.4-3.8h2.8l-3.8,5.7l4,6.2h-2.9l-2.6-4.2l-2.7,4.1    C65.3,137.3,62.4,137.4,62.4,137.4z"></path>		</g>		<g>			<path class="st0" d="M62.4,137.4l4.2-6.2l-3.6-5.8h2.8l2.3,3.9l2.4-3.8h2.8l-3.8,5.7l4,6.2h-2.9l-2.6-4.2l-2.7,4.1    C65.3,137.3,62.4,137.4,62.4,137.4z"></path>		</g>		<g>			<path class="st0" d="M43.3,134.7l4.2-6.2l-3.6-5.8h2.8l2.3,3.9l2.4-3.8h2.8l-3.8,5.7l4,6.2h-2.9l-2.6-4.2l-2.7,4.1L43.3,134.7    L43.3,134.7z"></path>		</g>		<g>			<path class="st0" d="M43.3,134.7l4.2-6.2l-3.6-5.8h2.8l2.3,3.9l2.4-3.8h2.8l-3.8,5.7l4,6.2h-2.9l-2.6-4.2l-2.7,4.1L43.3,134.7    L43.3,134.7z"></path>		</g>		<g>			<path class="st0" d="M22.4,138.9l4.2-6.2l-3.6-5.8h2.8l2.3,3.9l2.4-3.8h2.8l-3.8,5.7l4,6.2h-2.9l-2.6-4.2l-2.7,4.1    C25.3,138.8,22.4,138.9,22.4,138.9z"></path>		</g>		<g>			<path class="st0" d="M22.4,138.9l4.2-6.2l-3.6-5.8h2.8l2.3,3.9l2.4-3.8h2.8l-3.8,5.7l4,6.2h-2.9l-2.6-4.2l-2.7,4.1    C25.3,138.8,22.4,138.9,22.4,138.9z"></path>		</g>		<g>			<path class="st0" d="M9.6,153.3l4.2-6.2l-3.6-5.8H13l2.3,3.9l2.4-3.8h2.8l-3.8,5.7l4,6.2h-2.9l-2.6-4.2l-2.7,4.1L9.6,153.3z"></path>		</g>		<g>			<path class="st0" d="M9.6,153.3l4.2-6.2l-3.6-5.8H13l2.3,3.9l2.4-3.8h2.8l-3.8,5.7l4,6.2h-2.9l-2.6-4.2l-2.7,4.1L9.6,153.3z"></path>		</g>		<g>			<path class="st0" d="M9.2,175.9l4.2-6.2l-3.6-5.8h2.8l2.3,3.9l2.4-3.8h2.8l-3.8,5.7l4,6.2h-2.9l-2.6-4.2l-2.7,4.1    C12.1,175.8,9.2,175.9,9.2,175.9z"></path>		</g>		<g>			<path class="st0" d="M9.2,175.9l4.2-6.2l-3.6-5.8h2.8l2.3,3.9l2.4-3.8h2.8l-3.8,5.7l4,6.2h-2.9l-2.6-4.2l-2.7,4.1    C12.1,175.8,9.2,175.9,9.2,175.9z"></path>		</g>		<g>			<path class="st0" d="M21.8,194.9l4.2-6.2l-3.6-5.8h2.8l2.3,3.9l2.4-3.8h2.8l-3.8,5.7l4,6.2H30l-2.6-4.2l-2.7,4.1    C24.7,194.8,21.8,194.9,21.8,194.9z"></path>		</g>		<g>			<path class="st0" d="M21.8,194.9l4.2-6.2l-3.6-5.8h2.8l2.3,3.9l2.4-3.8h2.8l-3.8,5.7l4,6.2H30l-2.6-4.2l-2.7,4.1    C24.7,194.8,21.8,194.9,21.8,194.9z"></path>		</g>		<g>			<path class="st0" d="M44.7,198.4l4.2-6.2l-3.6-5.8h2.8l2.3,3.9l2.4-3.8h2.8l-3.8,5.7l4,6.2h-2.9l-2.6-4.2l-2.7,4.1L44.7,198.4z"></path>		</g>		<g>			<path class="st0" d="M44.7,198.4l4.2-6.2l-3.6-5.8h2.8l2.3,3.9l2.4-3.8h2.8l-3.8,5.7l4,6.2h-2.9l-2.6-4.2l-2.7,4.1L44.7,198.4z"></path>		</g>		<g>			<path class="st0" d="M63,189l4.2-6.2l-3.6-5.8h2.8l2.3,3.9l2.4-3.8h2.8l-3.8,5.7l4,6.2h-2.9l-2.6-4.2l-2.7,4.1L63,189L63,189z"></path>		</g>		<g>			<path class="st0" d="M63,189l4.2-6.2l-3.6-5.8h2.8l2.3,3.9l2.4-3.8h2.8l-3.8,5.7l4,6.2h-2.9l-2.6-4.2l-2.7,4.1L63,189L63,189z"></path>		</g>		<g>			<path class="st0" d="M80.7,165.7l4.2-6.2l-3.6-5.8h2.8l2.3,3.9l2.4-3.8h2.8l-3.8,5.7l4,6.2h-2.9l-2.6-4.2l-2.7,4.1    C83.6,165.6,80.7,165.7,80.7,165.7z"></path>		</g>		<g>			<path class="st0" d="M80.7,165.7l4.2-6.2l-3.6-5.8h2.8l2.3,3.9l2.4-3.8h2.8l-3.8,5.7l4,6.2h-2.9l-2.6-4.2l-2.7,4.1    C83.6,165.6,80.7,165.7,80.7,165.7z"></path>		</g>		<g>			<path class="st0" d="M201.8,165.3l4.2-6.2l-3.6-5.8h2.8l2.3,3.9l2.4-3.8h2.8l-3.8,5.7l4,6.2H210l-2.6-4.2l-2.7,4.1L201.8,165.3z"></path>		</g>		<g>			<path class="st0" d="M201.8,165.3l4.2-6.2l-3.6-5.8h2.8l2.3,3.9l2.4-3.8h2.8l-3.8,5.7l4,6.2H210l-2.6-4.2l-2.7,4.1L201.8,165.3z"></path>		</g>		<g>			<path class="st0" d="M403.3,165.2l4.2-6.2l-3.6-5.8h2.8l2.3,3.9l2.4-3.8h2.8l-3.8,5.7l4,6.2h-2.9l-2.6-4.2l-2.7,4.1L403.3,165.2    L403.3,165.2z"></path>		</g>		<g>			<path class="st0" d="M403.3,165.2l4.2-6.2l-3.6-5.8h2.8l2.3,3.9l2.4-3.8h2.8l-3.8,5.7l4,6.2h-2.9l-2.6-4.2l-2.7,4.1L403.3,165.2    L403.3,165.2z"></path>		</g>		<g>			<path class="st0" d="M95.5,157.4l4.2-6.2l-3.6-5.8h2.8l2.3,3.9l2.4-3.8h2.8l-3.8,5.7l4,6.2h-2.9l-2.6-4.2l-2.7,4.1    C98.4,157.3,95.5,157.4,95.5,157.4z"></path>		</g>		<g>			<path class="st0" d="M95.5,157.4l4.2-6.2l-3.6-5.8h2.8l2.3,3.9l2.4-3.8h2.8l-3.8,5.7l4,6.2h-2.9l-2.6-4.2l-2.7,4.1    C98.4,157.3,95.5,157.4,95.5,157.4z"></path>		</g>		<g>			<path class="st0" d="M109.6,145.1l4.2-6.2l-3.6-5.8h2.8l2.3,3.9l2.4-3.8h2.8l-3.8,5.7l4,6.2h-2.9l-2.6-4.2l-2.7,4.1    C112.5,145,109.6,145.1,109.6,145.1z"></path>		</g>		<g>			<path class="st0" d="M109.6,145.1l4.2-6.2l-3.6-5.8h2.8l2.3,3.9l2.4-3.8h2.8l-3.8,5.7l4,6.2h-2.9l-2.6-4.2l-2.7,4.1    C112.5,145,109.6,145.1,109.6,145.1z"></path>		</g>		<g>			<path class="st0" d="M128.7,145.4l4.2-6.2l-3.6-5.8h2.8l2.3,3.9l2.4-3.8h2.8l-3.7,5.9l4,6.2H137l-2.6-4.2l-2.7,4.1L128.7,145.4    L128.7,145.4z"></path>		</g>		<g>			<path class="st0" d="M128.7,145.4l4.2-6.2l-3.6-5.8h2.8l2.3,3.9l2.4-3.8h2.8l-3.7,5.9l4,6.2H137l-2.6-4.2l-2.7,4.1L128.7,145.4    L128.7,145.4z"></path>		</g>		<g>			<path class="st0" d="M142.4,158.9l4.2-6.2l-3.6-5.8h2.8l2.3,3.9l2.4-3.8h2.8l-3.8,5.7l4,6.2h-2.9l-2.6-4.2l-2.7,4.1L142.4,158.9z    "></path>		</g>		<g>			<path class="st0" d="M142.4,158.9l4.2-6.2l-3.6-5.8h2.8l2.3,3.9l2.4-3.8h2.8l-3.8,5.7l4,6.2h-2.9l-2.6-4.2l-2.7,4.1L142.4,158.9z    "></path>		</g>		<g>			<path class="st0" d="M147.3,182.3l4.2-6.2l-3.6-5.8h2.8l2.3,3.9l2.4-3.8h2.8l-3.8,5.7l4,6.2h-2.9l-2.6-4.2l-2.7,4.1L147.3,182.3z    "></path>		</g>		<g>			<path class="st0" d="M147.3,182.3l4.2-6.2l-3.6-5.8h2.8l2.3,3.9l2.4-3.8h2.8l-3.8,5.7l4,6.2h-2.9l-2.6-4.2l-2.7,4.1L147.3,182.3z    "></path>		</g>		<g>			<path class="st0" d="M142.8,201l4.2-6.2l-3.6-5.8h2.8l2.3,3.9l2.4-3.8h2.8l-3.8,5.7l4,6.2H151l-2.6-4.2l-2.7,4.1L142.8,201z"></path>		</g>		<g>			<path class="st0" d="M142.8,201l4.2-6.2l-3.6-5.8h2.8l2.3,3.9l2.4-3.8h2.8l-3.8,5.7l4,6.2H151l-2.6-4.2l-2.7,4.1L142.8,201z"></path>		</g>		<g>			<path class="st0" d="M132.4,218.1l4.2-6.2l-3.6-5.8h2.8l2.3,3.9l2.4-3.8h2.8l-3.8,5.7l4,6.2h-2.9l-2.6-4.2l-2.7,4.1L132.4,218.1z    "></path>		</g>		<g>			<path class="st0" d="M132.4,218.1l4.2-6.2l-3.6-5.8h2.8l2.3,3.9l2.4-3.8h2.8l-3.8,5.7l4,6.2h-2.9l-2.6-4.2l-2.7,4.1L132.4,218.1z    "></path>		</g>		<g>			<path class="st0" d="M80.7,189.9l4.2-6.2l-3.6-5.8h2.8l2.3,3.9l2.4-3.8h2.8l-3.8,5.7l4,6.2h-2.9l-2.6-4.2l-2.7,4.1    C83.6,189.8,80.7,189.9,80.7,189.9z"></path>		</g>		<g>			<path class="st0" d="M80.7,189.9l4.2-6.2l-3.6-5.8h2.8l2.3,3.9l2.4-3.8h2.8l-3.8,5.7l4,6.2h-2.9l-2.6-4.2l-2.7,4.1    C83.6,189.8,80.7,189.9,80.7,189.9z"></path>		</g>		<g>			<path class="st0" d="M201.7,190l4.2-6.2l-3.6-5.8h2.8l2.3,3.9l2.4-3.8h2.8l-3.8,5.7l4,6.2h-2.9l-2.6-4.2l-2.7,4.1L201.7,190z"></path>		</g>		<g>			<path class="st0" d="M201.7,190l4.2-6.2l-3.6-5.8h2.8l2.3,3.9l2.4-3.8h2.8l-3.8,5.7l4,6.2h-2.9l-2.6-4.2l-2.7,4.1L201.7,190z"></path>		</g>		<g>			<path class="st0" d="M403.3,189.9l4.2-6.2l-3.6-5.8h2.8l2.3,3.9l2.4-3.8h2.8l-3.8,5.7l4,6.2h-2.9l-2.6-4.2l-2.7,4.1L403.3,189.9    L403.3,189.9z"></path>		</g>		<g>			<path class="st0" d="M403.3,189.9l4.2-6.2l-3.6-5.8h2.8l2.3,3.9l2.4-3.8h2.8l-3.8,5.7l4,6.2h-2.9l-2.6-4.2l-2.7,4.1L403.3,189.9    L403.3,189.9z"></path>		</g>		<g>			<path class="st0" d="M80.7,212.6l4.2-6.2l-3.6-5.8h2.8l2.3,3.9l2.4-3.8h2.8l-3.8,5.7l4,6.2h-2.9l-2.6-4.2l-2.7,4.1    C83.6,212.5,80.7,212.6,80.7,212.6z"></path>		</g>		<g>			<path class="st0" d="M80.7,212.6l4.2-6.2l-3.6-5.8h2.8l2.3,3.9l2.4-3.8h2.8l-3.8,5.7l4,6.2h-2.9l-2.6-4.2l-2.7,4.1    C83.6,212.5,80.7,212.6,80.7,212.6z"></path>		</g>		<g>			<path class="st0" d="M201.8,212.6l4.2-6.2l-3.6-5.8h2.8l2.3,3.9l2.4-3.8h2.8l-3.8,5.7l4,6.2H210l-2.6-4.2l-2.7,4.1L201.8,212.6z"></path>		</g>		<g>			<path class="st0" d="M201.8,212.6l4.2-6.2l-3.6-5.8h2.8l2.3,3.9l2.4-3.8h2.8l-3.8,5.7l4,6.2H210l-2.6-4.2l-2.7,4.1L201.8,212.6z"></path>		</g>		<g>			<path class="st0" d="M403.3,212.5l4.2-6.2l-3.6-5.8h2.8l2.3,3.9l2.4-3.8h2.8l-3.8,5.7l4,6.2h-2.9l-2.6-4.2l-2.7,4.1L403.3,212.5    L403.3,212.5z"></path>		</g>		<g>			<path class="st0" d="M403.3,212.5l4.2-6.2l-3.6-5.8h2.8l2.3,3.9l2.4-3.8h2.8l-3.8,5.7l4,6.2h-2.9l-2.6-4.2l-2.7,4.1L403.3,212.5    L403.3,212.5z"></path>		</g>		<g>			<path class="st0" d="M80.8,235.2L85,229l-3.6-5.8h2.8l2.3,3.9l2.4-3.8h2.8l-3.8,5.7l4,6.2H89l-2.6-4.2l-2.7,4.1    C83.7,235.1,80.8,235.2,80.8,235.2z"></path>		</g>		<g>			<path class="st0" d="M80.8,235.2L85,229l-3.6-5.8h2.8l2.3,3.9l2.4-3.8h2.8l-3.8,5.7l4,6.2H89l-2.6-4.2l-2.7,4.1    C83.7,235.1,80.8,235.2,80.8,235.2z"></path>		</g>		<g>			<path class="st0" d="M201.8,235.2l4.2-6.2l-3.6-5.8h2.8l2.3,3.9l2.4-3.8h2.8l-3.8,5.7l4,6.2H210l-2.6-4.2l-2.7,4.1L201.8,235.2z"></path>		</g>		<g>			<path class="st0" d="M201.8,235.2l4.2-6.2l-3.6-5.8h2.8l2.3,3.9l2.4-3.8h2.8l-3.8,5.7l4,6.2H210l-2.6-4.2l-2.7,4.1L201.8,235.2z"></path>		</g>		<g>			<path class="st0" d="M403.3,235.2l4.2-6.2l-3.6-5.8h2.8l2.3,3.9l2.4-3.8h2.8l-3.8,5.7l4,6.2h-2.9l-2.6-4.2l-2.7,4.1L403.3,235.2    L403.3,235.2z"></path>		</g>		<g>			<path class="st0" d="M403.3,235.2l4.2-6.2l-3.6-5.8h2.8l2.3,3.9l2.4-3.8h2.8l-3.8,5.7l4,6.2h-2.9l-2.6-4.2l-2.7,4.1L403.3,235.2    L403.3,235.2z"></path>		</g>		<g>			<path class="st0" d="M325.4,38.3l4.2-6.2l-3.6-5.8h2.8l2.3,3.9l2.4-3.8h2.8l-3.8,5.7l4,6.2h-2.9l-2.6-4.2l-2.7,4.1L325.4,38.3    L325.4,38.3z"></path>		</g>		<g>			<path class="st0" d="M325.4,38.3l4.2-6.2l-3.6-5.8h2.8l2.3,3.9l2.4-3.8h2.8l-3.8,5.7l4,6.2h-2.9l-2.6-4.2l-2.7,4.1L325.4,38.3    L325.4,38.3z"></path>		</g>		<g>			<path class="st0" d="M311.1,33.4l4.2-6.2l-3.6-5.8h2.8l2.3,3.9l2.4-3.8h2.8l-3.8,5.7l4,6.2h-2.9l-2.6-4.2l-2.7,4.1L311.1,33.4    L311.1,33.4z"></path>		</g>		<g>			<path class="st0" d="M311.1,33.4l4.2-6.2l-3.6-5.8h2.8l2.3,3.9l2.4-3.8h2.8l-3.8,5.7l4,6.2h-2.9l-2.6-4.2l-2.7,4.1L311.1,33.4    L311.1,33.4z"></path>		</g>		<g>			<path class="st0" d="M310.6,18.1l4.2-6.2l-3.6-5.8h2.8l2.3,3.9l2.4-3.8h2.8l-3.8,5.7l4,6.2h-2.9l-2.6-4.2l-2.7,4.1L310.6,18.1    L310.6,18.1z"></path>		</g>		<g>			<path class="st0" d="M310.6,18.1l4.2-6.2l-3.6-5.8h2.8l2.3,3.9l2.4-3.8h2.8l-3.8,5.7l4,6.2h-2.9l-2.6-4.2l-2.7,4.1L310.6,18.1    L310.6,18.1z"></path>		</g>		<g>			<path class="st0" d="M326.4,12.1l4.2-6.2L327,0.1h2.8l2.3,3.9l2.4-3.8h2.8l-3.8,5.7l4,6.2h-2.9L332,7.9l-2.7,4.1L326.4,12.1    L326.4,12.1z"></path>		</g>		<g>			<path class="st0" d="M326.4,12.1l4.2-6.2L327,0.1h2.8l2.3,3.9l2.4-3.8h2.8l-3.8,5.7l4,6.2h-2.9L332,7.9l-2.7,4.1L326.4,12.1    L326.4,12.1z"></path>		</g>		<g>			<path class="st0" d="M340.5,18.6l4.2-6.2l-3.6-5.8h2.8l2.3,3.9l2.4-3.8h2.8l-3.8,5.7l4,6.2h-2.9l-2.6-4.2l-2.7,4.1L340.5,18.6    L340.5,18.6z"></path>		</g>		<g>			<path class="st0" d="M340.5,18.6l4.2-6.2l-3.6-5.8h2.8l2.3,3.9l2.4-3.8h2.8l-3.8,5.7l4,6.2h-2.9l-2.6-4.2l-2.7,4.1L340.5,18.6    L340.5,18.6z"></path>		</g>		<g>			<path class="st0" d="M355.4,25.4l4.2-6.2l-3.6-5.8h2.8l2.3,3.9l2.4-3.8h2.8l-3.8,5.7l4,6.2h-2.9l-2.6-4.2l-2.7,4.1L355.4,25.4    L355.4,25.4z"></path>		</g>		<g>			<path class="st0" d="M355.4,25.4l4.2-6.2l-3.6-5.8h2.8l2.3,3.9l2.4-3.8h2.8l-3.8,5.7l4,6.2h-2.9l-2.6-4.2l-2.7,4.1L355.4,25.4    L355.4,25.4z"></path>		</g>		<g>			<path class="st0" d="M369.4,34.5l4.2-6.2l-3.6-5.8h2.8l2.3,3.9l2.4-3.8h2.8l-3.8,5.7l4,6.2h-2.9l-2.6-4.2l-2.7,4.1L369.4,34.5    L369.4,34.5z"></path>		</g>		<g>			<path class="st0" d="M369.4,34.5l4.2-6.2l-3.6-5.8h2.8l2.3,3.9l2.4-3.8h2.8l-3.8,5.7l4,6.2h-2.9l-2.6-4.2l-2.7,4.1L369.4,34.5    L369.4,34.5z"></path>		</g>		<g>			<path class="st0" d="M383.3,43.8l4.2-6.2l-3.6-5.8h2.8l2.3,3.9l2.4-3.8h2.8l-3.8,5.7l4,6.2h-2.9l-2.6-4.2l-2.7,4.1L383.3,43.8    L383.3,43.8z"></path>		</g>		<g>			<path class="st0" d="M383.3,43.8l4.2-6.2l-3.6-5.8h2.8l2.3,3.9l2.4-3.8h2.8l-3.8,5.7l4,6.2h-2.9l-2.6-4.2l-2.7,4.1L383.3,43.8    L383.3,43.8z"></path>		</g>		<g>			<path class="st0" d="M393.8,60.3l4.2-6.2l-3.6-5.8h2.8l2.3,3.9l2.4-3.8h2.8l-3.8,5.7l4,6.2H402l-2.6-4.2l-2.7,4.1L393.8,60.3    L393.8,60.3z"></path>		</g>		<g>			<path class="st0" d="M393.8,60.3l4.2-6.2l-3.6-5.8h2.8l2.3,3.9l2.4-3.8h2.8l-3.8,5.7l4,6.2H402l-2.6-4.2l-2.7,4.1L393.8,60.3    L393.8,60.3z"></path>		</g>		<g>			<path class="st0" d="M397.2,42.8l4.2-6.2l-3.6-5.8h2.8l2.3,3.9l2.4-3.8h2.8l-3.8,5.7l4,6.2h-2.9l-2.6-4.2l-2.7,4.1L397.2,42.8    L397.2,42.8z"></path>		</g>		<g>			<path class="st0" d="M397.2,42.8l4.2-6.2l-3.6-5.8h2.8l2.3,3.9l2.4-3.8h2.8l-3.8,5.7l4,6.2h-2.9l-2.6-4.2l-2.7,4.1L397.2,42.8    L397.2,42.8z"></path>		</g>		<g>			<path class="st0" d="M404.5,26.9l4.2-6.2l-3.6-5.8h2.8l2.3,3.9l2.4-3.8h2.8l-3.8,5.7l4,6.2h-2.9l-2.6-4.2l-2.7,4.1L404.5,26.9    L404.5,26.9z"></path>		</g>		<g>			<path class="st0" d="M404.5,26.9l4.2-6.2l-3.6-5.8h2.8l2.3,3.9l2.4-3.8h2.8l-3.8,5.7l4,6.2h-2.9l-2.6-4.2l-2.7,4.1L404.5,26.9    L404.5,26.9z"></path>		</g>		<g>			<path class="st0" d="M416.4,17.7l4.2-6.2L417,5.7h2.8l2.3,3.9l2.4-3.8h2.8l-3.8,5.7l4,6.2h-2.9l-2.6-4.2l-2.7,4.1L416.4,17.7    L416.4,17.7z"></path>		</g>		<g>			<path class="st0" d="M416.4,17.7l4.2-6.2L417,5.7h2.8l2.3,3.9l2.4-3.8h2.8l-3.8,5.7l4,6.2h-2.9l-2.6-4.2l-2.7,4.1L416.4,17.7    L416.4,17.7z"></path>		</g>		<g>			<path class="st0" d="M431,18.6l4.2-6.2l-3.6-5.8h2.8l2.3,3.9l2.4-3.8h2.8l-3.8,5.7l4,6.2h-2.9l-2.6-4.2l-2.7,4.1L431,18.6    L431,18.6z"></path>		</g>		<g>			<path class="st0" d="M431,18.6l4.2-6.2l-3.6-5.8h2.8l2.3,3.9l2.4-3.8h2.8l-3.8,5.7l4,6.2h-2.9l-2.6-4.2l-2.7,4.1L431,18.6    L431,18.6z"></path>		</g>		<g>			<path class="st0" d="M444.5,24.4l4.2-6.2l-3.6-5.8h2.8l2.3,3.9l2.4-3.8h2.8l-3.8,5.7l4,6.2h-2.9l-2.6-4.2l-2.7,4.1L444.5,24.4    L444.5,24.4z"></path>		</g>		<g>			<path class="st0" d="M444.5,24.4l4.2-6.2l-3.6-5.8h2.8l2.3,3.9l2.4-3.8h2.8l-3.8,5.7l4,6.2h-2.9l-2.6-4.2l-2.7,4.1L444.5,24.4    L444.5,24.4z"></path>		</g>		<g>			<path class="st0" d="M398.5,81.4l4.2-6.2l-3.6-5.8h2.8l2.3,3.9l2.4-3.8h2.8l-3.8,5.7l4,6.2h-2.9l-2.6-4.2l-2.7,4.1L398.5,81.4    L398.5,81.4z"></path>		</g>		<g>			<path class="st0" d="M398.5,81.4l4.2-6.2l-3.6-5.8h2.8l2.3,3.9l2.4-3.8h2.8l-3.8,5.7l4,6.2h-2.9l-2.6-4.2l-2.7,4.1L398.5,81.4    L398.5,81.4z"></path>		</g>		<g>			<path class="st0" d="M80.8,103.9l4.2-6.2l-3.6-5.8h2.8l2.3,3.9l2.4-3.8h2.8l-3.8,5.7l4,6.2H89l-2.6-4.2l-2.7,4.1    C83.7,103.8,80.8,103.9,80.8,103.9z"></path>		</g>		<g>			<path class="st0" d="M80.8,103.9l4.2-6.2l-3.6-5.8h2.8l2.3,3.9l2.4-3.8h2.8l-3.8,5.7l4,6.2H89l-2.6-4.2l-2.7,4.1    C83.7,103.8,80.8,103.9,80.8,103.9z"></path>		</g>		<g>			<path class="st0" d="M100.9,103.9l4.2-6.2l-3.6-5.8h2.8l2.3,3.9L109,92h2.8l-3.8,5.7l4,6.2h-2.9l-2.6-4.2l-2.7,4.1    C103.8,103.8,100.9,103.9,100.9,103.9z"></path>		</g>		<g>			<path class="st0" d="M100.9,103.9l4.2-6.2l-3.6-5.8h2.8l2.3,3.9L109,92h2.8l-3.8,5.7l4,6.2h-2.9l-2.6-4.2l-2.7,4.1    C103.8,103.8,100.9,103.9,100.9,103.9z"></path>		</g>		<g>			<path class="st0" d="M121,103.9l4.2-6.2l-3.6-5.8h2.8l2.3,3.9l2.4-3.8h2.8l-3.8,5.7l4,6.2h-2.9l-2.6-4.2l-2.7,4.1    C123.9,103.8,121,103.9,121,103.9z"></path>		</g>		<g>			<path class="st0" d="M121,103.9l4.2-6.2l-3.6-5.8h2.8l2.3,3.9l2.4-3.8h2.8l-3.8,5.7l4,6.2h-2.9l-2.6-4.2l-2.7,4.1    C123.9,103.8,121,103.9,121,103.9z"></path>		</g>		<g>			<path class="st1" d="M50.9,305.3v8.7h3.6c0.5,0,0.8,0.1,1,0.3s0.3,0.4,0.3,0.7s-0.1,0.5-0.3,0.7s-0.5,0.3-1,0.3h-8.2    c-0.5,0-0.8-0.1-1-0.3S45,315.3,45,315s0.1-0.5,0.3-0.7s0.5-0.3,1-0.3h2.6v-23.2h-2.6c-0.5,0-0.8-0.1-1-0.3s-0.3-0.4-0.3-0.7    s0.1-0.5,0.3-0.7s0.5-0.3,1-0.3h8.2c0.5,0,0.8,0.1,1,0.3s0.3,0.4,0.3,0.7s-0.1,0.5-0.3,0.7s-0.5,0.3-1,0.3h-3.6v12l13.4-12h-2.1    c-0.5,0-0.8-0.1-1-0.3s-0.3-0.4-0.3-0.7s0.1-0.5,0.3-0.7s0.5-0.3,1-0.3h5.7c0.5,0,0.8,0.1,1,0.3s0.3,0.4,0.3,0.7    s-0.1,0.5-0.3,0.7s-0.5,0.3-1,0.3h-0.8l-10.7,9.6c1.6,0.6,2.9,1.5,4,2.4c1,1,2.1,2.4,3,4.1c0.6,1,1.6,3.4,3.1,7.1h2.4    c0.5,0,0.8,0.1,1,0.3s0.3,0.4,0.3,0.7s-0.1,0.5-0.3,0.7s-0.5,0.3-1,0.3h-3.8c-2-5.6-3.8-9.2-5.1-10.8s-3.1-2.7-5.2-3.4    L50.9,305.3L50.9,305.3z"></path>			<path class="st1" d="M148.9,306.9h-12.8l-2.6,7.1h3.7c0.5,0,0.8,0.1,1,0.3s0.3,0.4,0.3,0.7s-0.1,0.5-0.3,0.7s-0.5,0.3-1,0.3h-7.3    c-0.5,0-0.8-0.1-1-0.3s-0.3-0.4-0.3-0.7s0.1-0.5,0.3-0.7s0.5-0.3,1-0.3h1.5l8.6-23.2h-5.7c-0.5,0-0.8-0.1-1-0.3s-0.3-0.4-0.3-0.7    s0.1-0.5,0.3-0.7s0.5-0.3,1-0.3h9.8l9.5,25.1h1.5c0.5,0,0.8,0.1,1,0.3s0.3,0.4,0.3,0.7s-0.1,0.5-0.3,0.7s-0.5,0.3-1,0.3h-7.2    c-0.5,0-0.8-0.1-1-0.3s-0.3-0.4-0.3-0.7s0.1-0.5,0.3-0.7s0.5-0.3,1-0.3h3.7L148.9,306.9z M148.2,304.9l-5.4-14.1h-0.7l-5.2,14.1    H148.2L148.2,304.9z"></path>			<path class="st1" d="M221.6,303.8v10.1h3.6c0.5,0,0.8,0.1,1,0.3s0.3,0.4,0.3,0.7s-0.1,0.5-0.3,0.7s-0.5,0.3-1,0.3H217    c-0.5,0-0.8-0.1-1-0.3s-0.3-0.4-0.3-0.7s0.1-0.5,0.3-0.7s0.5-0.3,1-0.3h2.6v-23.2H217c-0.5,0-0.8-0.1-1-0.3s-0.3-0.4-0.3-0.7    s0.1-0.5,0.3-0.7s0.5-0.3,1-0.3h11.8c2.4,0,4.5,0.8,6.1,2.3c1.7,1.5,2.5,3.3,2.5,5.2c0,1.4-0.5,2.7-1.5,3.9s-2.7,2.2-5.2,3.1    c1.4,1,2.6,2,3.6,3.2s2.6,3.7,4.7,7.4h1.5c0.5,0,0.8,0.1,1,0.3s0.3,0.4,0.3,0.7s-0.1,0.5-0.3,0.7s-0.5,0.3-1,0.3h-2.6    c-2.4-4.3-4.3-7.2-5.6-8.7s-2.8-2.6-4.5-3.4h-6.2L221.6,303.8L221.6,303.8z M221.6,301.9h5.3c1.7,0,3.2-0.3,4.6-0.9    c1.4-0.6,2.4-1.3,3-2.2c0.6-0.8,0.9-1.7,0.9-2.5c0-1.3-0.7-2.5-2-3.7s-2.9-1.8-4.8-1.8h-7.2v11.1H221.6z"></path>			<path class="st1" d="M305.7,314v-23.2h-1.6c-0.5,0-0.8-0.1-1-0.3s-0.3-0.4-0.3-0.7s0.1-0.5,0.3-0.7c0.2-0.2,0.5-0.3,1-0.3h10.5    c1.6,0,3.1,0.3,4.5,1s2.4,1.5,3.1,2.3c1.2,1.5,2.1,3,2.8,4.7c0.4,1.2,0.7,2.6,0.7,4.2v2.7c0,2-0.4,3.9-1.3,5.8s-2.3,3.5-4.4,4.9    c-1.5,1-3.3,1.5-5.3,1.5h-10.5c-0.5,0-0.8-0.1-1-0.3s-0.3-0.4-0.3-0.7s0.1-0.5,0.3-0.7c0.2-0.2,0.5-0.3,1-0.3h1.5L305.7,314    L305.7,314z M307.6,314h7.1c1.6,0,3.2-0.5,4.6-1.6s2.5-2.3,3.2-3.8s1.1-3,1.1-4.4v-3.5c0-1.2-0.2-2.3-0.6-3.2    c-0.6-1.4-1.3-2.7-2.4-3.9c-0.6-0.7-1.4-1.3-2.5-1.9s-2.2-0.8-3.5-0.8h-7.1L307.6,314L307.6,314L307.6,314z"></path>			<path class="st1" d="M410.5,302.4c0,2.6-0.5,5-1.6,7.2s-2.5,3.9-4.3,5.2c-1.8,1.2-3.8,1.9-5.9,1.9c-3.1,0-5.9-1.3-8.3-4    s-3.6-6.1-3.6-10.2s1.2-7.6,3.6-10.3s5.1-4,8.3-4c2.1,0,4.1,0.6,5.9,1.9c1.8,1.2,3.3,3,4.3,5.2    C410,297.4,410.5,299.8,410.5,302.4L410.5,302.4z M408.6,302.4c0-3.2-0.9-6-2.8-8.5c-1.8-2.5-4.2-3.8-7.1-3.8    c-2.7,0-5.1,1.2-7,3.6s-2.9,5.3-2.9,8.7c0,3.6,1,6.6,3,8.9s4.3,3.4,6.9,3.4c2.9,0,5.3-1.3,7.1-3.8S408.6,305.6,408.6,302.4    L408.6,302.4z"></path>		</g>	</g></g></svg>